<?xml version="1.0" encoding="utf-8"?>
<!-- Svg Vector Icons : http://www.onlinewebfonts.com/icon -->
<!DOCTYPE svg PUBLIC "-//W3C//DTD SVG 1.1//EN" "http://www.w3.org/Graphics/SVG/1.1/DTD/svg11.dtd">
<svg version="1.1" xmlns="http://www.w3.org/2000/svg" xmlns:xlink="http://www.w3.org/1999/xlink" x="0px" y="0px" viewBox="0 0 256 256" enable-background="new 0 0 256 256" xml:space="preserve">
<metadata> Svg Vector Icons : http://www.onlinewebfonts.com/icon </metadata>
<g><g><g><path fill="#000000" d="M127.5,11.1c-0.8,2-29.3,86.3-29.3,86.7c0,0.2-19.9,0.5-44.2,0.6L10,98.7l36.7,29l36.7,28.9l-1.3,4c-22,66.9-27.3,83.5-27.1,84.1c0.2,0.5,16.5-11.3,36.2-26c19.8-14.8,36.4-26.9,36.9-26.9c0.5,0,17.3,12.3,37.5,27.4c20.2,15,36.5,26.6,36.1,25.7c-0.8-1.9-28.5-87.5-28.7-88.5c0-0.3,16.4-13.4,36.5-29.2L246,98.7l-44.2-0.3l-44.1-0.2l-14.8-44.3C134.8,29.7,127.9,10.4,127.5,11.1z"/></g></g></g>
</svg>